<svg width="24" height="24" viewBox="0 0 24 24" fill="none" xmlns="http://www.w3.org/2000/svg">
<g clip-path="url(#clip0_301_83)">
<path d="M12 0.75C7.23747 0.75 3.18748 3.7125 1.53748 7.875H22.4625C20.8125 3.7125 16.7625 0.75 12 0.75Z" fill="#42ADE2"/>
<path d="M12 23.25C16.7625 23.25 20.8125 20.2875 22.4625 16.125H1.53748C3.18748 20.2875 7.23747 23.25 12 23.25Z" fill="#83BF4F"/>
<path d="M23.25 12C23.25 10.8375 23.0625 9.675 22.725 8.625H1.275C0.9375 9.675 0.75 10.8375 0.75 12C0.75 13.1625 0.9375 14.325 1.275 15.375H22.725C23.0625 14.325 23.25 13.1625 23.25 12Z" fill="white"/>
<path d="M22.4625 7.875C22.5 7.9875 22.575 8.1375 22.6125 8.25C22.65 8.3625 22.6875 8.5125 22.725 8.625" fill="#C94747"/>
<path d="M22.6125 8.25C22.575 8.1375 22.5 7.9875 22.4625 7.875H1.53752C1.50002 7.9875 1.42502 8.1375 1.38752 8.25C1.35002 8.3625 1.31252 8.5125 1.27502 8.625H22.725C22.6875 8.5125 22.65 8.3625 22.6125 8.25ZM1.38752 15.75C1.42502 15.8625 1.50002 16.0125 1.53752 16.125H22.4625C22.5 16.0125 22.575 15.8625 22.6125 15.75C22.65 15.6375 22.6875 15.4875 22.725 15.375H1.27502C1.31252 15.4875 1.35002 15.6375 1.38752 15.75Z" fill="#C94747"/>
<path d="M7.65 6.4875C6.75 6.4875 6.0375 5.775 6.0375 4.875C6.0375 3.975 6.75 3.2625 7.65 3.2625C7.875 3.2625 8.0625 3.3 8.25 3.375C7.95 3.15 7.5375 3 7.125 3C6.075 3 5.25 3.825 5.25 4.875C5.25 5.925 6.075 6.75 7.125 6.75C7.5375 6.75 7.95 6.6 8.25 6.375C8.0625 6.45 7.875 6.4875 7.65 6.4875ZM9.2625 5.7L9.4125 6.1125H9.825L9.4875 6.3375L9.6 6.75L9.2625 6.4875L8.925 6.75L9.075 6.3375L8.7375 6.1125H9.15L9.2625 5.7ZM10.875 5.7L10.9875 6.1125H11.4375L11.1 6.3375L11.2125 6.75L10.875 6.4875L10.5375 6.75L10.65 6.3375L10.3125 6.1125H10.725L10.875 5.7ZM12.4875 5.7L12.6 6.1125H13.0125L12.675 6.3375L12.825 6.75L12.4875 6.4875L12.1125 6.75L12.2625 6.3375L11.925 6.1125H12.3375L12.4875 5.7ZM14.0625 5.7L14.2125 6.1125H14.625L14.2875 6.3375L14.4 6.75L14.0625 6.4875L13.725 6.75L13.8375 6.3375L13.5 6.1125H13.95L14.0625 5.7ZM15.675 5.7L15.7875 6.1125H16.2375L15.8625 6.3375L16.0125 6.75L15.675 6.4875L15.3375 6.75L15.45 6.3375L15.1125 6.1125H15.525L15.675 5.7ZM10.875 4.35L10.9875 4.7625H11.4375L11.1 4.9875L11.2125 5.4L10.875 5.1375L10.5375 5.4L10.65 4.9875L10.3125 4.7625H10.725L10.875 4.35ZM12.4875 4.35L12.6 4.7625H13.0125L12.675 4.9875L12.825 5.4L12.4875 5.1375L12.1125 5.4L12.2625 4.9875L11.925 4.7625H12.3375L12.4875 4.35ZM14.0625 4.35L14.2125 4.7625H14.625L14.2875 4.9875L14.4 5.4L14.0625 5.1375L13.725 5.4L13.8375 4.9875L13.5 4.7625H13.95L14.0625 4.35ZM15.675 4.35L15.7875 4.7625H16.2375L15.8625 4.9875L16.0125 5.4L15.675 5.1375L15.3375 5.4L15.45 4.9875L15.1125 4.7625H15.525L15.675 4.35ZM12.4875 3L12.6 3.4125H13.0125L12.675 3.6375L12.825 4.05L12.4875 3.7875L12.1125 4.05L12.2625 3.6375L11.925 3.4125H12.3375L12.4875 3ZM14.0625 3L14.2125 3.4125H14.625L14.2875 3.6375L14.4 4.05L14.0625 3.7875L13.725 4.05L13.8375 3.6375L13.5 3.4125H13.95L14.0625 3ZM15.675 3L15.7875 3.4125H16.2375L15.8625 3.6375L16.0125 4.05L15.675 3.7875L15.3375 4.05L15.45 3.6375L15.1125 3.4125H15.525L15.675 3Z" fill="white"/>
</g>
<defs>
<clipPath id="clip0_301_83">
<rect width="24" height="24" fill="white"/>
</clipPath>
</defs>
</svg>
