<svg width="170" height="50" viewBox="0 0 170 50" fill="none" xmlns="http://www.w3.org/2000/svg">
<path fill-rule="evenodd" clip-rule="evenodd" d="M24.1084 2.12122C36.4131 2.12122 46.3886 12.043 46.3886 24.2821C46.3886 36.5218 36.4131 46.4436 24.1084 46.4436C11.8033 46.4436 1.82794 36.5218 1.82794 24.2821C1.82794 12.043 11.8033 2.12122 24.1084 2.12122ZM28.8845 13.4927C30.4908 13.4927 31.793 14.7884 31.793 16.3861C31.793 17.9837 30.4908 19.2788 28.8845 19.2788C27.2782 19.2788 25.9756 17.9837 25.9756 16.3861C25.9756 14.7884 27.2782 13.4927 28.8845 13.4927ZM28.8845 21.3891C30.4908 21.3891 31.793 22.6845 31.793 24.2821C31.793 25.88 30.4908 27.1755 28.8845 27.1755C27.2782 27.1755 25.9756 25.88 25.9756 24.2821C25.9756 22.6845 27.2782 21.3891 28.8845 21.3891ZM28.8845 29.2856C30.4908 29.2856 31.793 30.5811 31.793 32.1788C31.793 33.7766 30.4908 35.0723 28.8845 35.0723C27.2782 35.0723 25.9756 33.7766 25.9756 32.1788C25.9756 30.5811 27.2782 29.2856 28.8845 29.2856ZM22.241 13.4926H16.4238V34.9948H22.241V13.4926Z" fill="#2D34BA"/>
<path fill-rule="evenodd" clip-rule="evenodd" d="M87.2146 33.1005H101.097V30.9986H89.9394V15.4639H82.6736V30.2183C82.6736 32.2286 85.2035 33.1005 87.2146 33.1005ZM149.906 33.1005H163.789V30.9986H152.631V24.8804H160.701V23.2314H152.631V17.5654H163.789V15.4639H152.631H145.365V30.2183C145.365 32.2286 147.896 33.1005 149.906 33.1005ZM63.3602 33.1005H77.2419V30.9986H66.0846V24.8804H74.1541V23.2314H66.0846V17.5654H77.2419V15.4639H66.0846H58.8186V30.2183C58.8186 32.2286 61.3485 33.1005 63.3602 33.1005ZM133.212 15.4639H125.947H119.226V17.5654H125.947V33.1005H133.212V17.5654H139.934V15.4639H133.212ZM111.07 33.1005H113.794V30.2183V15.4639H106.528V30.2183C106.528 32.2286 109.059 33.1005 111.07 33.1005Z" fill="#2D34BA"/>
</svg>
